<mxfile host="Electron" modified="2023-04-16T15:26:33.148Z" agent="Mozilla/5.0 (Windows NT 10.0; Win64; x64) AppleWebKit/537.36 (KHTML, like Gecko) draw.io/21.1.2 Chrome/106.0.5249.199 Electron/21.4.3 Safari/537.36" etag="SKbTu8TJmNwWnPIqPUcZ" version="21.1.2" type="device" pages="2">
  <diagram id="W4TF9URl0ZYkIfV0rlxe" name="Scene Dependencies">
    <mxGraphModel dx="1667" dy="1155" grid="1" gridSize="10" guides="1" tooltips="1" connect="1" arrows="1" fold="1" page="1" pageScale="1" pageWidth="1169" pageHeight="827" math="0" shadow="0">
      <root>
        <mxCell id="0" />
        <mxCell id="1" parent="0" />
        <mxCell id="RHkJs6pvWi7oGY5p-Qhj-37" value="Legend" style="rounded=0;whiteSpace=wrap;html=1;verticalAlign=top;align=left;" parent="1" vertex="1">
          <mxGeometry x="840" y="50" width="310" height="290" as="geometry" />
        </mxCell>
        <mxCell id="RHkJs6pvWi7oGY5p-Qhj-2" value="Create" style="edgeStyle=orthogonalEdgeStyle;rounded=0;orthogonalLoop=1;jettySize=auto;html=1;entryX=0.5;entryY=0;entryDx=0;entryDy=0;" parent="1" source="RHkJs6pvWi7oGY5p-Qhj-1" target="RHkJs6pvWi7oGY5p-Qhj-3" edge="1">
          <mxGeometry relative="1" as="geometry">
            <mxPoint x="610" y="310" as="targetPoint" />
          </mxGeometry>
        </mxCell>
        <mxCell id="RHkJs6pvWi7oGY5p-Qhj-1" value="Main Menu" style="rounded=0;whiteSpace=wrap;html=1;fillColor=#dae8fc;strokeColor=#6c8ebf;" parent="1" vertex="1">
          <mxGeometry x="550" y="110" width="120" height="60" as="geometry" />
        </mxCell>
        <mxCell id="RHkJs6pvWi7oGY5p-Qhj-5" value="Start&amp;nbsp;" style="edgeStyle=orthogonalEdgeStyle;rounded=0;orthogonalLoop=1;jettySize=auto;html=1;" parent="1" source="RHkJs6pvWi7oGY5p-Qhj-3" target="RHkJs6pvWi7oGY5p-Qhj-4" edge="1">
          <mxGeometry relative="1" as="geometry" />
        </mxCell>
        <mxCell id="RHkJs6pvWi7oGY5p-Qhj-3" value="Lobby" style="rounded=0;whiteSpace=wrap;html=1;fillColor=#dae8fc;strokeColor=#6c8ebf;" parent="1" vertex="1">
          <mxGeometry x="550" y="310" width="120" height="60" as="geometry" />
        </mxCell>
        <mxCell id="RHkJs6pvWi7oGY5p-Qhj-8" value="" style="edgeStyle=orthogonalEdgeStyle;rounded=0;orthogonalLoop=1;jettySize=auto;html=1;" parent="1" source="RHkJs6pvWi7oGY5p-Qhj-4" target="RHkJs6pvWi7oGY5p-Qhj-7" edge="1">
          <mxGeometry relative="1" as="geometry" />
        </mxCell>
        <mxCell id="RHkJs6pvWi7oGY5p-Qhj-9" value="" style="edgeStyle=orthogonalEdgeStyle;rounded=0;orthogonalLoop=1;jettySize=auto;html=1;" parent="1" source="RHkJs6pvWi7oGY5p-Qhj-4" target="RHkJs6pvWi7oGY5p-Qhj-7" edge="1">
          <mxGeometry relative="1" as="geometry" />
        </mxCell>
        <mxCell id="RHkJs6pvWi7oGY5p-Qhj-11" value="" style="edgeStyle=orthogonalEdgeStyle;rounded=0;orthogonalLoop=1;jettySize=auto;html=1;" parent="1" source="RHkJs6pvWi7oGY5p-Qhj-4" target="RHkJs6pvWi7oGY5p-Qhj-10" edge="1">
          <mxGeometry relative="1" as="geometry" />
        </mxCell>
        <mxCell id="RHkJs6pvWi7oGY5p-Qhj-4" value="Game" style="rounded=0;whiteSpace=wrap;html=1;fillColor=#dae8fc;strokeColor=#6c8ebf;" parent="1" vertex="1">
          <mxGeometry x="550" y="450" width="120" height="60" as="geometry" />
        </mxCell>
        <mxCell id="RHkJs6pvWi7oGY5p-Qhj-13" value="" style="edgeStyle=orthogonalEdgeStyle;rounded=0;orthogonalLoop=1;jettySize=auto;html=1;fillColor=#d5e8d4;strokeColor=#82b366;" parent="1" source="RHkJs6pvWi7oGY5p-Qhj-7" target="RHkJs6pvWi7oGY5p-Qhj-12" edge="1">
          <mxGeometry relative="1" as="geometry" />
        </mxCell>
        <mxCell id="RHkJs6pvWi7oGY5p-Qhj-19" value="" style="edgeStyle=orthogonalEdgeStyle;rounded=0;orthogonalLoop=1;jettySize=auto;html=1;fillColor=#d5e8d4;strokeColor=#82b366;" parent="1" source="RHkJs6pvWi7oGY5p-Qhj-7" target="RHkJs6pvWi7oGY5p-Qhj-18" edge="1">
          <mxGeometry relative="1" as="geometry" />
        </mxCell>
        <mxCell id="RHkJs6pvWi7oGY5p-Qhj-7" value="Left Panel" style="rounded=0;whiteSpace=wrap;html=1;fillColor=#d5e8d4;strokeColor=#82b366;" parent="1" vertex="1">
          <mxGeometry x="420" y="580" width="120" height="60" as="geometry" />
        </mxCell>
        <mxCell id="RHkJs6pvWi7oGY5p-Qhj-25" value="" style="edgeStyle=orthogonalEdgeStyle;rounded=0;orthogonalLoop=1;jettySize=auto;html=1;fillColor=#d5e8d4;strokeColor=#82b366;" parent="1" source="RHkJs6pvWi7oGY5p-Qhj-10" target="RHkJs6pvWi7oGY5p-Qhj-24" edge="1">
          <mxGeometry relative="1" as="geometry" />
        </mxCell>
        <mxCell id="RHkJs6pvWi7oGY5p-Qhj-27" value="" style="edgeStyle=orthogonalEdgeStyle;rounded=0;orthogonalLoop=1;jettySize=auto;html=1;fillColor=#d5e8d4;strokeColor=#82b366;" parent="1" source="RHkJs6pvWi7oGY5p-Qhj-10" target="RHkJs6pvWi7oGY5p-Qhj-26" edge="1">
          <mxGeometry relative="1" as="geometry" />
        </mxCell>
        <mxCell id="RHkJs6pvWi7oGY5p-Qhj-10" value="Right Panel" style="rounded=0;whiteSpace=wrap;html=1;fillColor=#d5e8d4;strokeColor=#82b366;" parent="1" vertex="1">
          <mxGeometry x="700" y="580" width="120" height="60" as="geometry" />
        </mxCell>
        <mxCell id="RHkJs6pvWi7oGY5p-Qhj-15" value="" style="edgeStyle=orthogonalEdgeStyle;rounded=0;orthogonalLoop=1;jettySize=auto;html=1;fillColor=#d5e8d4;strokeColor=#82b366;" parent="1" source="RHkJs6pvWi7oGY5p-Qhj-12" target="RHkJs6pvWi7oGY5p-Qhj-14" edge="1">
          <mxGeometry relative="1" as="geometry" />
        </mxCell>
        <mxCell id="RHkJs6pvWi7oGY5p-Qhj-17" value="" style="edgeStyle=orthogonalEdgeStyle;rounded=0;orthogonalLoop=1;jettySize=auto;html=1;fillColor=#d5e8d4;strokeColor=#82b366;" parent="1" source="RHkJs6pvWi7oGY5p-Qhj-12" target="RHkJs6pvWi7oGY5p-Qhj-16" edge="1">
          <mxGeometry relative="1" as="geometry" />
        </mxCell>
        <mxCell id="RHkJs6pvWi7oGY5p-Qhj-12" value="Stacks" style="rounded=0;whiteSpace=wrap;html=1;fillColor=#d5e8d4;strokeColor=#82b366;" parent="1" vertex="1">
          <mxGeometry x="250" y="580" width="120" height="60" as="geometry" />
        </mxCell>
        <mxCell id="RHkJs6pvWi7oGY5p-Qhj-21" value="" style="edgeStyle=orthogonalEdgeStyle;rounded=0;orthogonalLoop=1;jettySize=auto;html=1;fillColor=#d5e8d4;strokeColor=#82b366;" parent="1" source="RHkJs6pvWi7oGY5p-Qhj-14" target="RHkJs6pvWi7oGY5p-Qhj-20" edge="1">
          <mxGeometry relative="1" as="geometry" />
        </mxCell>
        <mxCell id="RHkJs6pvWi7oGY5p-Qhj-23" value="" style="edgeStyle=orthogonalEdgeStyle;rounded=0;orthogonalLoop=1;jettySize=auto;html=1;" parent="1" source="RHkJs6pvWi7oGY5p-Qhj-14" target="RHkJs6pvWi7oGY5p-Qhj-22" edge="1">
          <mxGeometry relative="1" as="geometry" />
        </mxCell>
        <mxCell id="RHkJs6pvWi7oGY5p-Qhj-14" value="Marketplace" style="rounded=0;whiteSpace=wrap;html=1;fillColor=#d5e8d4;strokeColor=#82b366;" parent="1" vertex="1">
          <mxGeometry x="70" y="580" width="120" height="60" as="geometry" />
        </mxCell>
        <mxCell id="RHkJs6pvWi7oGY5p-Qhj-16" value="Money Hand" style="rounded=0;whiteSpace=wrap;html=1;fillColor=#d5e8d4;strokeColor=#82b366;" parent="1" vertex="1">
          <mxGeometry x="250" y="720" width="120" height="60" as="geometry" />
        </mxCell>
        <mxCell id="RHkJs6pvWi7oGY5p-Qhj-18" value="Summary" style="rounded=0;whiteSpace=wrap;html=1;fillColor=#d5e8d4;strokeColor=#82b366;" parent="1" vertex="1">
          <mxGeometry x="420" y="720" width="120" height="60" as="geometry" />
        </mxCell>
        <mxCell id="RHkJs6pvWi7oGY5p-Qhj-20" value="Money Stack" style="rounded=0;whiteSpace=wrap;html=1;fillColor=#d5e8d4;strokeColor=#82b366;" parent="1" vertex="1">
          <mxGeometry x="70" y="720" width="120" height="60" as="geometry" />
        </mxCell>
        <mxCell id="RHkJs6pvWi7oGY5p-Qhj-22" value="Tile Stack" style="rounded=0;whiteSpace=wrap;html=1;fillColor=#d5e8d4;strokeColor=#82b366;" parent="1" vertex="1">
          <mxGeometry x="70" y="440" width="120" height="60" as="geometry" />
        </mxCell>
        <mxCell id="RHkJs6pvWi7oGY5p-Qhj-28" value="Influcences" style="edgeStyle=orthogonalEdgeStyle;rounded=0;orthogonalLoop=1;jettySize=auto;html=1;exitX=1;exitY=0.5;exitDx=0;exitDy=0;entryX=0.5;entryY=1;entryDx=0;entryDy=0;dashed=1;fillColor=#d5e8d4;strokeColor=#82b366;" parent="1" source="RHkJs6pvWi7oGY5p-Qhj-24" target="RHkJs6pvWi7oGY5p-Qhj-26" edge="1">
          <mxGeometry relative="1" as="geometry" />
        </mxCell>
        <mxCell id="RHkJs6pvWi7oGY5p-Qhj-24" value="Player Select" style="rounded=0;whiteSpace=wrap;html=1;fillColor=#d5e8d4;strokeColor=#82b366;" parent="1" vertex="1">
          <mxGeometry x="700" y="720" width="120" height="60" as="geometry" />
        </mxCell>
        <mxCell id="RHkJs6pvWi7oGY5p-Qhj-26" value="Selected Player Town&lt;br&gt;+&lt;br&gt;Tile Yard" style="rounded=0;whiteSpace=wrap;html=1;fillColor=#d5e8d4;strokeColor=#82b366;" parent="1" vertex="1">
          <mxGeometry x="900" y="580" width="120" height="60" as="geometry" />
        </mxCell>
        <mxCell id="RHkJs6pvWi7oGY5p-Qhj-35" value="Main Scenes" style="rounded=0;whiteSpace=wrap;html=1;fillColor=#dae8fc;strokeColor=#6c8ebf;" parent="1" vertex="1">
          <mxGeometry x="950" y="100" width="120" height="60" as="geometry" />
        </mxCell>
        <mxCell id="RHkJs6pvWi7oGY5p-Qhj-36" value="Sub-Scenes" style="rounded=0;whiteSpace=wrap;html=1;fillColor=#d5e8d4;strokeColor=#82b366;" parent="1" vertex="1">
          <mxGeometry x="950" y="200" width="120" height="60" as="geometry" />
        </mxCell>
      </root>
    </mxGraphModel>
  </diagram>
  <diagram id="R4SUjiJjCYBbDqorLwea" name="State Machine">
    <mxGraphModel dx="2074" dy="1196" grid="1" gridSize="10" guides="1" tooltips="1" connect="1" arrows="1" fold="1" page="1" pageScale="1" pageWidth="1169" pageHeight="827" math="0" shadow="0">
      <root>
        <mxCell id="0" />
        <mxCell id="1" parent="0" />
        <mxCell id="_B9_3xfPN9Bv5BFVHBm--6" value="PlayerStateMachine" style="shape=mxgraph.sysml.stateMachine;verticalAlign=top;whiteSpace=wrap;align=center;" parent="1" vertex="1">
          <mxGeometry x="1270" y="780" width="1030" height="740" as="geometry" />
        </mxCell>
        <mxCell id="_B9_3xfPN9Bv5BFVHBm--7" value="aborted" style="resizable=0;html=1;verticalAlign=top;align=left;labelBackgroundColor=none;spacingLeft=5;spacingTop=-2;" parent="_B9_3xfPN9Bv5BFVHBm--6" connectable="0" vertex="1">
          <mxGeometry x="1030" y="370" as="geometry" />
        </mxCell>
        <mxCell id="akMHQ099u6eZsGm50Lc3-1" value="Select money card" style="edgeStyle=orthogonalEdgeStyle;rounded=0;orthogonalLoop=1;jettySize=auto;html=1;exitX=0.25;exitY=1;exitDx=0;exitDy=0;" edge="1" parent="1" source="_B9_3xfPN9Bv5BFVHBm--3" target="_B9_3xfPN9Bv5BFVHBm--13">
          <mxGeometry relative="1" as="geometry" />
        </mxCell>
        <mxCell id="akMHQ099u6eZsGm50Lc3-2" style="edgeStyle=orthogonalEdgeStyle;rounded=0;orthogonalLoop=1;jettySize=auto;html=1;exitX=0.75;exitY=1;exitDx=0;exitDy=0;entryX=0.5;entryY=0;entryDx=0;entryDy=0;" edge="1" parent="1" source="_B9_3xfPN9Bv5BFVHBm--3" target="_B9_3xfPN9Bv5BFVHBm--14">
          <mxGeometry relative="1" as="geometry" />
        </mxCell>
        <mxCell id="akMHQ099u6eZsGm50Lc3-5" value="Select Hand Card" style="edgeLabel;html=1;align=center;verticalAlign=middle;resizable=0;points=[];" vertex="1" connectable="0" parent="akMHQ099u6eZsGm50Lc3-2">
          <mxGeometry x="-0.2741" y="2" relative="1" as="geometry">
            <mxPoint as="offset" />
          </mxGeometry>
        </mxCell>
        <mxCell id="akMHQ099u6eZsGm50Lc3-9" style="edgeStyle=orthogonalEdgeStyle;rounded=0;orthogonalLoop=1;jettySize=auto;html=1;exitX=0.5;exitY=1;exitDx=0;exitDy=0;" edge="1" parent="1" source="_B9_3xfPN9Bv5BFVHBm--3" target="_B9_3xfPN9Bv5BFVHBm--17">
          <mxGeometry relative="1" as="geometry" />
        </mxCell>
        <mxCell id="_B9_3xfPN9Bv5BFVHBm--3" value="Start" style="html=1;align=center;verticalAlign=top;rounded=1;absoluteArcSize=1;arcSize=10;dashed=0;" parent="1" vertex="1">
          <mxGeometry x="515" y="170" width="140" height="40" as="geometry" />
        </mxCell>
        <mxCell id="_B9_3xfPN9Bv5BFVHBm--5" style="edgeStyle=orthogonalEdgeStyle;rounded=0;orthogonalLoop=1;jettySize=auto;html=1;" parent="1" source="_B9_3xfPN9Bv5BFVHBm--4" target="_B9_3xfPN9Bv5BFVHBm--3" edge="1">
          <mxGeometry relative="1" as="geometry" />
        </mxCell>
        <mxCell id="_B9_3xfPN9Bv5BFVHBm--4" value="" style="ellipse;shape=doubleEllipse;html=1;dashed=0;whitespace=wrap;aspect=fixed;" parent="1" vertex="1">
          <mxGeometry x="555" y="40" width="60" height="60" as="geometry" />
        </mxCell>
        <mxCell id="akMHQ099u6eZsGm50Lc3-8" style="edgeStyle=orthogonalEdgeStyle;rounded=0;orthogonalLoop=1;jettySize=auto;html=1;exitX=0.5;exitY=1;exitDx=0;exitDy=0;" edge="1" parent="1" source="_B9_3xfPN9Bv5BFVHBm--10" target="_B9_3xfPN9Bv5BFVHBm--11">
          <mxGeometry relative="1" as="geometry" />
        </mxCell>
        <mxCell id="_B9_3xfPN9Bv5BFVHBm--10" value="End" style="html=1;align=center;verticalAlign=top;rounded=1;absoluteArcSize=1;arcSize=10;dashed=0;" parent="1" vertex="1">
          <mxGeometry x="515" y="470" width="140" height="40" as="geometry" />
        </mxCell>
        <mxCell id="_B9_3xfPN9Bv5BFVHBm--11" value="" style="shape=mxgraph.sysml.actFinal;html=1;verticalLabelPosition=bottom;labelBackgroundColor=#ffffff;verticalAlign=top;" parent="1" vertex="1">
          <mxGeometry x="565" y="560" width="40" height="40" as="geometry" />
        </mxCell>
        <mxCell id="akMHQ099u6eZsGm50Lc3-3" style="edgeStyle=orthogonalEdgeStyle;rounded=0;orthogonalLoop=1;jettySize=auto;html=1;exitX=0.5;exitY=1;exitDx=0;exitDy=0;entryX=0;entryY=0.5;entryDx=0;entryDy=0;" edge="1" parent="1" source="_B9_3xfPN9Bv5BFVHBm--13" target="_B9_3xfPN9Bv5BFVHBm--10">
          <mxGeometry relative="1" as="geometry" />
        </mxCell>
        <mxCell id="_B9_3xfPN9Bv5BFVHBm--13" value="Pick" style="html=1;align=center;verticalAlign=top;rounded=1;absoluteArcSize=1;arcSize=10;dashed=0;" parent="1" vertex="1">
          <mxGeometry x="280" y="280" width="140" height="40" as="geometry" />
        </mxCell>
        <mxCell id="akMHQ099u6eZsGm50Lc3-4" value="Paid exactly" style="edgeStyle=orthogonalEdgeStyle;rounded=0;orthogonalLoop=1;jettySize=auto;html=1;exitX=0.75;exitY=0;exitDx=0;exitDy=0;entryX=1;entryY=0.5;entryDx=0;entryDy=0;" edge="1" parent="1" source="_B9_3xfPN9Bv5BFVHBm--14" target="_B9_3xfPN9Bv5BFVHBm--3">
          <mxGeometry relative="1" as="geometry" />
        </mxCell>
        <mxCell id="akMHQ099u6eZsGm50Lc3-6" style="edgeStyle=orthogonalEdgeStyle;rounded=0;orthogonalLoop=1;jettySize=auto;html=1;exitX=0.5;exitY=1;exitDx=0;exitDy=0;entryX=0.5;entryY=0;entryDx=0;entryDy=0;" edge="1" parent="1" source="_B9_3xfPN9Bv5BFVHBm--14" target="_B9_3xfPN9Bv5BFVHBm--16">
          <mxGeometry relative="1" as="geometry" />
        </mxCell>
        <mxCell id="_B9_3xfPN9Bv5BFVHBm--14" value="Buy" style="html=1;align=center;verticalAlign=top;rounded=1;absoluteArcSize=1;arcSize=10;dashed=0;" parent="1" vertex="1">
          <mxGeometry x="780" y="270" width="140" height="40" as="geometry" />
        </mxCell>
        <mxCell id="akMHQ099u6eZsGm50Lc3-7" style="edgeStyle=orthogonalEdgeStyle;rounded=0;orthogonalLoop=1;jettySize=auto;html=1;exitX=0.5;exitY=1;exitDx=0;exitDy=0;entryX=1;entryY=0.5;entryDx=0;entryDy=0;" edge="1" parent="1" source="_B9_3xfPN9Bv5BFVHBm--16" target="_B9_3xfPN9Bv5BFVHBm--10">
          <mxGeometry relative="1" as="geometry" />
        </mxCell>
        <mxCell id="_B9_3xfPN9Bv5BFVHBm--16" value="Place" style="html=1;align=center;verticalAlign=top;rounded=1;absoluteArcSize=1;arcSize=10;dashed=0;" parent="1" vertex="1">
          <mxGeometry x="780" y="380" width="140" height="40" as="geometry" />
        </mxCell>
        <mxCell id="_B9_3xfPN9Bv5BFVHBm--17" value="Redesign" style="html=1;align=center;verticalAlign=top;rounded=1;absoluteArcSize=1;arcSize=10;dashed=0;" parent="1" vertex="1">
          <mxGeometry x="515" y="280" width="140" height="40" as="geometry" />
        </mxCell>
      </root>
    </mxGraphModel>
  </diagram>
</mxfile>
